<svg width="256" height="256" viewBox="0 0 256 256" fill="none" xmlns="http://www.w3.org/2000/svg">
<path d="M163.611 24C164.108 24 164.531 24.3576 164.615 24.8467L168.934 50.0635C169.406 52.8194 172.261 54.4728 174.886 53.5098L198.884 44.7051C199.354 44.5326 199.88 44.7245 200.128 45.1592C200.376 45.5929 200.275 46.1422 199.89 46.46L180.235 62.666C178.071 64.4499 178.063 67.7615 180.217 69.5566L199.37 85.5172C199.381 85.5269 199.396 85.5313 199.411 85.5312C199.908 85.5312 200.332 85.8888 200.416 86.3779L204.734 111.595C205.205 114.351 208.061 116.004 210.686 115.041L234.684 106.236C235.154 106.064 235.679 106.256 235.928 106.69C236.176 107.124 236.075 107.673 235.69 107.991L216.035 124.197C213.872 125.981 213.863 129.293 216.017 131.088L235.696 147.487C236.078 147.806 236.177 148.352 235.931 148.784C235.681 149.221 235.152 149.413 234.681 149.236L210.706 140.268C208.077 139.284 205.202 140.936 204.728 143.703L200.416 168.886C200.405 168.95 200.388 169.012 200.366 169.071C200.143 169.667 199.424 169.906 198.933 170.31L180.235 185.729C178.071 187.512 178.063 190.824 180.217 192.619L199.897 209.019C200.279 209.337 200.377 209.884 200.131 210.315C199.882 210.752 199.352 210.944 198.881 210.768L174.906 201.799C172.277 200.815 169.402 202.467 168.928 205.234L164.615 230.417C164.532 230.906 164.108 231.264 163.611 231.264C163.115 231.264 162.691 230.906 162.608 230.417L158.295 205.234C157.821 202.467 154.946 200.815 152.317 201.799L128.342 210.768C128.008 210.892 127.615 210.892 127.281 210.768L103.307 201.799C100.677 200.815 97.8011 202.467 97.3273 205.234L93.0158 230.417C92.932 230.906 92.508 231.263 92.0118 231.264C91.5155 231.264 91.0907 230.906 91.007 230.417L86.6954 205.234C86.2216 202.467 83.3455 200.815 80.7159 201.799L56.7423 210.768C56.2714 210.944 55.7418 210.752 55.4923 210.315C55.2457 209.884 55.3438 209.337 55.7257 209.019L75.4054 192.619C77.5596 190.824 77.5513 187.512 75.3878 185.729L55.7325 169.522C55.3472 169.205 55.2474 168.655 55.4952 168.222C55.515 168.187 55.5237 168.147 55.517 168.108L51.338 143.703C50.8641 140.936 47.989 139.284 45.3595 140.268L21.3849 149.236C20.914 149.412 20.3843 149.221 20.1349 148.784C19.8884 148.352 19.9874 147.806 20.3693 147.487L40.049 131.088C42.203 129.293 42.1947 125.981 40.0314 124.197L20.3761 107.991C19.9907 107.673 19.8901 107.124 20.1378 106.69C20.3862 106.256 20.9119 106.064 21.382 106.236L45.38 115.041C48.0049 116.004 50.8603 114.351 51.3322 111.595L55.4963 87.2739C55.4975 87.2667 55.496 87.2593 55.4923 87.2529C55.2457 86.8212 55.3438 86.2744 55.7257 85.9561L75.4054 69.5566C77.5596 67.7615 77.5513 64.4499 75.3878 62.666L55.7325 46.46C55.3472 46.1421 55.2474 45.5929 55.4952 45.1592C55.7437 44.7245 56.2693 44.5326 56.7394 44.7051L80.7374 53.5098C83.3622 54.4726 86.2177 52.8192 86.6896 50.0635L91.007 24.8467C91.0908 24.3575 91.5156 24 92.0118 24C92.5079 24.0002 92.9319 24.3577 93.0158 24.8467L97.3331 50.0635C97.805 52.8194 100.661 54.4729 103.286 53.5098L127.283 44.7051C127.616 44.583 128.006 44.583 128.339 44.7051L152.337 53.5098C154.962 54.4728 157.817 52.8194 158.289 50.0635L162.608 24.8467C162.691 24.3576 163.115 24 163.611 24ZM108.635 185.729C106.471 187.512 106.463 190.824 108.617 192.619L124.947 206.226C126.606 207.609 129.017 207.609 130.676 206.226L147.006 192.619C149.16 190.824 149.152 187.512 146.988 185.729L130.659 172.263C129.005 170.9 126.618 170.9 124.965 172.263L108.635 185.729ZM67.9493 140.268C65.3199 139.284 62.4447 140.936 61.9708 143.703L58.4125 164.477C58.048 166.605 59.2549 168.69 61.2818 169.434L80.7374 176.572C83.3622 177.535 86.2177 175.882 86.6896 173.126L90.2231 152.483C90.5856 150.366 89.3923 148.289 87.3803 147.537L67.9493 140.268ZM122.495 143.703C122.021 140.936 119.146 139.284 116.517 140.268L96.6682 147.692C94.656 148.445 93.4626 150.521 93.8252 152.639L97.3331 173.126C97.805 175.882 100.661 177.535 103.286 176.572L123.156 169.282C125.183 168.538 126.39 166.453 126.026 164.325L122.495 143.703ZM139.107 140.268C136.477 139.284 133.602 140.936 133.128 143.703L129.596 164.325C129.232 166.453 130.438 168.538 132.465 169.282L152.337 176.572C154.962 177.535 157.817 175.882 158.289 173.126L161.797 152.639C162.16 150.521 160.966 148.445 158.954 147.692L139.107 140.268ZM194.095 143.703C193.621 140.936 190.746 139.284 188.116 140.268L168.268 147.692C166.256 148.445 165.062 150.521 165.425 152.639L168.934 173.126C169.406 175.882 172.261 177.535 174.886 176.572L194.757 169.282C196.784 168.538 197.99 166.453 197.626 164.325L194.095 143.703ZM144.435 124.197C142.271 125.981 142.263 129.293 144.417 131.088L163.57 147.048C163.582 147.058 163.596 147.063 163.611 147.062C163.626 147.062 163.64 147.058 163.651 147.049L182.806 131.088C184.96 129.293 184.952 125.981 182.788 124.197L166.457 110.732C164.804 109.369 162.417 109.369 160.764 110.732L144.435 124.197ZM73.2784 124.197C71.115 125.981 71.1059 129.293 73.2599 131.088L89.3678 144.511C91.0273 145.894 93.4378 145.894 95.0974 144.511L111.206 131.088C113.36 129.293 113.351 125.981 111.188 124.197L95.0796 110.915C93.4263 109.552 91.0388 109.552 89.3856 110.915L73.2784 124.197ZM86.6954 82.1719C86.2216 79.4047 83.3455 77.7526 80.7159 78.7363L61.2844 86.0055C59.2722 86.7582 58.0789 88.8346 58.4415 90.9522L61.9767 111.595C62.4486 114.351 65.304 116.004 67.9288 115.041L87.3829 107.903C89.4096 107.159 90.6165 105.074 90.2522 102.946L86.6954 82.1719ZM103.307 78.7363C100.677 77.7526 97.8011 79.4047 97.3273 82.1719L93.7961 102.793C93.4317 104.921 94.6385 107.006 96.6653 107.749L116.537 115.041C119.162 116.004 122.017 114.351 122.489 111.595L125.997 91.1072C126.359 88.9898 125.166 86.9135 123.154 86.1608L103.307 78.7363ZM158.295 82.1719C157.821 79.4047 154.946 77.7527 152.317 78.7363L132.468 86.1608C130.456 86.9135 129.262 88.99 129.625 91.1076L133.134 111.595C133.606 114.351 136.461 116.004 139.086 115.041L158.957 107.75C160.984 107.007 162.191 104.922 161.826 102.794L158.295 82.1719ZM174.906 78.7363C172.277 77.7527 169.402 79.4047 168.928 82.1719L165.396 102.794C165.031 104.922 166.238 107.007 168.265 107.75L188.137 115.041C190.762 116.004 193.617 114.351 194.089 111.595L197.597 91.1074C197.96 88.9899 196.766 86.9135 194.754 86.1608L174.906 78.7363ZM108.635 62.666C106.471 64.4499 106.463 67.7615 108.617 69.5566L127.77 85.5172C127.782 85.5269 127.797 85.5312 127.812 85.5312C127.826 85.5313 127.84 85.5271 127.851 85.5178L147.006 69.5566C149.16 67.7615 149.152 64.4499 146.988 62.666L130.658 49.2017C129.005 47.8387 126.618 47.8387 124.965 49.2017L108.635 62.666Z" fill="white"/>
</svg>
