<svg width="256" height="256" viewBox="0 0 256 256" fill="none" xmlns="http://www.w3.org/2000/svg">
<path d="M163.611 24C164.107 24 164.532 24.3575 164.616 24.8467L168.933 50.0635C169.405 52.8192 172.26 54.4725 174.885 53.5098L198.883 44.7051C199.353 44.5326 199.88 44.7245 200.128 45.1592C200.376 45.5928 200.275 46.1423 199.89 46.46L180.235 62.666C178.071 64.4499 178.063 67.7615 180.217 69.5566L199.37 85.5172C199.382 85.5269 199.397 85.5312 199.412 85.5312C199.908 85.5314 200.332 85.8889 200.416 86.3779L204.734 111.595C205.206 114.351 208.061 116.004 210.686 115.041L234.683 106.236C235.153 106.064 235.68 106.256 235.928 106.69C236.176 107.124 236.075 107.673 235.69 107.991L216.035 124.197C213.871 125.981 213.863 129.293 216.017 131.088L235.697 147.487C236.079 147.806 236.177 148.352 235.93 148.784C235.681 149.221 235.152 149.412 234.681 149.236L210.707 140.268C208.077 139.284 205.202 140.936 204.728 143.703L200.416 168.886C200.405 168.95 200.388 169.012 200.365 169.072C200.142 169.667 199.425 169.905 198.934 170.31L180.235 185.729C178.071 187.512 178.063 190.824 180.217 192.619L199.897 209.019C200.279 209.337 200.377 209.884 200.13 210.315C199.881 210.752 199.351 210.944 198.88 210.768L174.907 201.799C172.277 200.815 169.401 202.467 168.927 205.234L164.616 230.417C164.532 230.906 164.107 231.264 163.611 231.264C163.115 231.263 162.691 230.906 162.607 230.417L158.295 205.234C157.822 202.467 154.945 200.815 152.316 201.799L128.342 210.768C128.008 210.893 127.615 210.892 127.281 210.768L103.306 201.799C100.677 200.815 97.8015 202.467 97.3276 205.234L93.0151 230.417C92.9314 230.906 92.5076 231.264 92.0112 231.264C91.5149 231.264 91.0911 230.906 91.0073 230.417L86.6948 205.234C86.2209 202.467 83.3458 200.815 80.7163 201.799L56.7417 210.768C56.2708 210.944 55.7411 210.752 55.4917 210.315C55.2452 209.884 55.3442 209.337 55.7261 209.019L75.4058 192.619C77.5598 190.824 77.5515 187.512 75.3882 185.729L55.7329 169.522C55.3476 169.205 55.247 168.655 55.4946 168.222C55.5144 168.187 55.5231 168.147 55.5164 168.108L51.3384 143.703C50.8645 140.936 47.9884 139.284 45.3589 140.268L21.3853 149.236C20.9143 149.413 20.3847 149.221 20.1353 148.784C19.8886 148.352 19.9867 147.806 20.3687 147.487L40.0484 131.088C42.2025 129.293 42.1942 125.981 40.0308 124.197L20.3755 107.991C19.9901 107.673 19.8904 107.124 20.1382 106.69C20.3866 106.256 20.9123 106.064 21.3823 106.236L45.3804 115.041C48.0052 116.004 50.8607 114.35 51.3325 111.595L55.4956 87.2739C55.4969 87.2667 55.4954 87.2593 55.4917 87.2529C55.2452 86.8212 55.3442 86.2743 55.7261 85.9561L75.4058 69.5566C77.5598 67.7615 77.5516 64.4499 75.3882 62.666L55.7329 46.46C55.3476 46.1422 55.247 45.5929 55.4946 45.1592C55.743 44.7245 56.2688 44.5327 56.7388 44.7051L80.7368 53.5098C83.3617 54.4729 86.2171 52.8194 86.689 50.0635L91.0073 24.8467C91.0912 24.3576 91.515 24 92.0112 24C92.5075 24 92.9313 24.3576 93.0151 24.8467L97.3335 50.0635C97.8054 52.8193 100.661 54.4728 103.286 53.5098L127.284 44.7051C127.616 44.583 128.007 44.583 128.339 44.7051L152.337 53.5098C154.962 54.4725 157.818 52.8192 158.29 50.0635L162.607 24.8467C162.691 24.3577 163.115 24.0002 163.611 24ZM108.635 185.729C106.472 187.512 106.463 190.824 108.617 192.619L124.946 206.226C126.606 207.609 129.016 207.609 130.676 206.226L147.005 192.619C149.16 190.824 149.151 187.512 146.988 185.729L130.658 172.264C129.005 170.9 126.617 170.9 124.964 172.264L108.635 185.729ZM67.9497 140.268C65.3202 139.284 62.4441 140.936 61.9702 143.703L58.4127 164.478C58.0483 166.606 59.2552 168.69 61.282 169.434L80.7368 176.572C83.3617 177.535 86.2171 175.882 86.689 173.126L90.2233 152.483C90.5859 150.366 89.3926 148.289 87.3805 147.537L67.9497 140.268ZM122.495 143.703C122.021 140.936 119.146 139.284 116.516 140.268L96.6677 147.692C94.6555 148.445 93.4621 150.521 93.8248 152.639L97.3335 173.126C97.8054 175.882 100.661 177.535 103.286 176.572L123.156 169.282C125.183 168.538 126.39 166.453 126.026 164.325L122.495 143.703ZM139.106 140.268C136.477 139.284 133.601 140.936 133.127 143.703L129.596 164.325C129.232 166.453 130.439 168.538 132.466 169.282L152.337 176.572C154.962 177.535 157.818 175.882 158.29 173.126L161.797 152.639C162.159 150.521 160.966 148.445 158.954 147.692L139.106 140.268ZM194.095 143.703C193.621 140.936 190.745 139.284 188.116 140.268L168.268 147.692C166.256 148.445 165.063 150.521 165.425 152.639L168.933 173.126C169.405 175.882 172.26 177.535 174.885 176.572L194.756 169.282C196.783 168.538 197.99 166.453 197.626 164.325L194.095 143.703ZM144.435 124.197C142.272 125.981 142.263 129.293 144.417 131.088L163.569 147.048C163.581 147.058 163.596 147.063 163.611 147.062C163.626 147.062 163.641 147.058 163.652 147.048L182.806 131.088C184.96 129.293 184.951 125.981 182.788 124.197L166.456 110.732C164.803 109.369 162.415 109.369 160.762 110.733L144.435 124.197ZM73.2778 124.197C71.1144 125.981 71.1061 129.293 73.2603 131.088L89.3682 144.51C91.0277 145.893 93.4381 145.893 95.0976 144.51L111.206 131.088C113.36 129.293 113.351 125.981 111.188 124.197L95.0798 110.916C93.4266 109.553 91.0392 109.553 89.3861 110.916L73.2778 124.197ZM86.6948 82.1719C86.2209 79.4047 83.3458 77.7526 80.7163 78.7363L61.2846 86.0055C59.2725 86.7582 58.0792 88.8346 58.4417 90.952L61.9761 111.595C62.448 114.351 65.3043 116.004 67.9292 115.041L87.3833 107.902C89.41 107.158 90.6168 105.073 90.2524 102.945L86.6948 82.1719ZM103.306 78.7363C100.677 77.7527 97.8015 79.4047 97.3276 82.1719L93.7956 102.793C93.4311 104.921 94.638 107.006 96.6649 107.749L116.537 115.041C119.162 116.004 122.017 114.351 122.489 111.595L125.997 91.1074C126.359 88.9899 125.166 86.9135 123.154 86.1608L103.306 78.7363ZM158.295 82.1719C157.822 79.4047 154.945 77.7526 152.316 78.7363L132.468 86.1608C130.456 86.9135 129.263 88.9899 129.625 91.1074L133.133 111.595C133.605 114.351 136.461 116.004 139.085 115.041L158.956 107.75C160.983 107.007 162.19 104.922 161.826 102.794L158.295 82.1719ZM174.907 78.7363C172.277 77.7526 169.401 79.4047 168.927 82.1719L165.396 102.794C165.032 104.922 166.239 107.007 168.265 107.75L188.137 115.041C190.762 116.004 193.617 114.351 194.089 111.595L197.597 91.1072C197.959 88.9898 196.766 86.9135 194.754 86.1608L174.907 78.7363ZM108.635 62.666C106.472 64.4499 106.463 67.7615 108.617 69.5566L127.77 85.5172C127.781 85.5269 127.796 85.5313 127.811 85.5312C127.826 85.5312 127.84 85.5271 127.851 85.5178L147.005 69.5566C149.16 67.7615 149.151 64.4499 146.988 62.666L130.658 49.2018C129.005 47.8387 126.617 47.8388 124.964 49.2019L108.635 62.666Z" fill="black"/>
</svg>
